<svg width="1268" height="1481" viewBox="0 0 1268 1481" fill="none" xmlns="http://www.w3.org/2000/svg">
  <defs>
    <filter id="drop-shadow">
      <feGaussianBlur in="SourceAlpha" stdDeviation="2" result="blur" />
      <feOffset in="blur" dx="4" dy="4" result="offsetBlur" />
      <feMerge>
        <feMergeNode in="offsetBlur" />
        <feMergeNode in="SourceGraphic" />
      </feMerge>
    </filter>
  </defs>

  <path d="M134.5 1143L107 1127L149 1125L158 1121.5L162.5 1116.5L161 1088.5H156.5L142.5 1081.5L126.5 1073.5L97 1072L91 1069L88.5 1064V1056L99.5 1052L121 1049.5L146.5 1032.5L165 1020L176.5 1013L178.5 1008V979.5V915L176.5 907L173.5 898L169.5 894.5L166.5 892.5L165 887.5H151.5L142 896.5L134.5 907L123 918L103.5 930H42.5L20.5 921L6.5 911L0 896.5V866L4 854.5L12 834.5L20.5 819L42.5 792.5L77 762L130 722.5L144.5 709L146 687L151 661.5L153.5 613L159 604.5L167.5 599L175.5 596.5L187.5 588L195.5 576L197.5 568L204 557L208 546.5L212 538.5L219 525L233.5 510.5L244.5 501L262 487.5L273.5 483H284L302 487.5L331 505L361 525L390 523.5L393 508.5L394.5 439L397.5 380L404 353.5L406.5 342.5L411.5 332L433.5 321.5L448 315L461 310L485 306V275L495.5 269.5L512 264.5L523 260.5L533.5 259H594L631.5 260.5H670.5H712L730.5 264.5L743.5 273.5L754.5 293L762 315L774 354.5L786.5 365.5L807 374H821L892.5 315L901.5 304L908.5 287L929.5 239L941 206.5L949 168.5L955.5 129L964.5 111L983 93L998.5 77.5L1011.5 69.5L1024 55.5L1038 39L1049.5 30L1064.5 36L1088 33L1096.5 22L1117.5 4L1141.5 0H1175.5L1186.5 6V40.5L1218.5 91L1265.5 147.5L1267.5 159.5L1233.5 199L1218.5 203.5H1207.5L1198 217L1196 243.5L1212 255V277.5L1213.5 311L1220.5 319.5V349.5L1215.5 362.5L1156 417.5V441L1124.5 517.5L1120 529.5L1100.5 559.5L1079.5 592V632L1084 643.5L1089 654.5L1087.5 664.5L1081 668.5L1079.5 687L1064.5 690.5L1059.5 699L1055.5 707.5L1048.5 750L1045 764.5L1032.5 786L1024 793.5H988.5L980 786H953L919.5 814.5H901.5L898 806L889.5 789L885.5 775.5V755L894 734.5L901.5 725.5L898 718.5L883 709L868.5 696H649L647 698.5L631 707V732L615.5 754.5L613 765L577 802.5L551.5 838H548V859V910L555.5 914L567.5 933.5L572.5 944.5L577 953L580.5 965V978.5L575 989L563.5 1013L560 1020L555.5 1027.5L551.5 1031.5L548 1043L544.5 1060L537 1072.5L527.5 1079L513 1087.5L500 1091.5L489.5 1111L484.5 1131.5L480.5 1140.5L477 1159L493 1171L509 1183L527.5 1206L537 1219L556.5 1223L576 1246.5V1280L552.5 1339L521.5 1416.5L496 1475.5L493 1481H487.5L404.5 1369.5L397 1361.5L392.5 1358L389.5 1354L381.5 1350L369.5 1346L358.5 1339L350 1330.5L347 1327L342.5 1323L339 1316L334.5 1308.5L331 1302L328 1295L316 1284L304.5 1272L289 1257L265.5 1241L239 1222.5L192.5 1192L161 1163.5L134.5 1143Z" fill="#DF8F00" stroke="#" filter="url(#drop-shadow)" />
</svg>

