<svg width="131" height="155" viewBox="0 0 131 155" fill="none" xmlns="http://www.w3.org/2000/svg">
<path d="M3.8854 93.2422V52.4089H12.0521V86.282H20.4507V93.2422H3.8854ZM29.9157 93.6134C27.9823 93.6134 26.5052 93.1649 25.4844 92.2678C24.479 91.3707 23.7907 90.141 23.4195 88.5788C23.0483 87.0167 22.8627 85.2457 22.8627 83.2659C22.8627 81.1469 23.0715 79.4145 23.4891 78.0689C23.9067 76.7078 24.6182 75.5941 25.6236 74.728C26.6444 73.8618 28.0442 73.1271 29.8229 72.5239L34.9735 70.7607V67.1877C34.9735 65.3162 34.3625 64.3804 33.1406 64.3804C32.027 64.3804 31.4702 65.1383 31.4702 66.6541V68.7422H23.3963C23.3808 68.6184 23.3731 68.4638 23.3731 68.2782C23.3731 68.0771 23.3731 67.8528 23.3731 67.6054C23.3731 64.1407 24.1851 61.6892 25.8092 60.2507C27.4487 58.7968 30.0395 58.0698 33.5814 58.0698C35.4375 58.0698 37.1002 58.4024 38.5696 59.0675C40.039 59.7171 41.199 60.6838 42.0497 61.9676C42.9159 63.2513 43.349 64.8367 43.349 66.7237V93.2422H35.0895V89.1125C34.6873 90.5664 34.0223 91.68 33.0942 92.4534C32.1662 93.2267 31.1067 93.6134 29.9157 93.6134ZM33.187 87.1636C33.8676 87.1636 34.3316 86.8774 34.5791 86.3052C34.8266 85.7329 34.9503 85.1142 34.9503 84.4491V74.7512C33.8057 75.2152 32.9164 75.803 32.2822 76.5144C31.648 77.2105 31.331 78.239 31.331 79.6001V84.0779C31.331 86.135 31.9497 87.1636 33.187 87.1636ZM56.8741 99.2744C55.2655 99.2744 53.8812 99.1893 52.7211 99.0192C51.5766 98.8645 50.548 98.5784 49.6354 98.1607C48.7229 97.7431 47.8103 97.1554 46.8978 96.3975L49.705 91.5949C51.7312 92.8014 53.7574 93.4046 55.7836 93.4046C57.1138 93.4046 58.1037 92.9792 58.7533 92.1286C59.403 91.2779 59.7278 90.172 59.7278 88.8108V85.4003C59.0627 87.7823 57.2917 88.9732 54.4148 88.9732C52.7598 88.9732 51.4219 88.5788 50.4011 87.79C49.3802 87.0012 48.6378 85.9339 48.1738 84.5883C47.7098 83.2427 47.4778 81.7423 47.4778 80.0874V67.5821C47.4778 65.7106 47.6788 64.0634 48.081 62.6404C48.4831 61.2019 49.1869 60.0806 50.1923 59.2763C51.1976 58.472 52.6051 58.0698 54.4148 58.0698C55.946 58.0698 57.137 58.4565 57.9877 59.2299C58.8539 60.0032 59.4339 61.0473 59.7278 62.362V58.4411H68.196V88.2772C68.196 92.2214 67.2835 95.0364 65.4584 96.7223C63.6487 98.4237 60.7873 99.2744 56.8741 99.2744ZM57.7789 82.709C59.0781 82.709 59.7278 81.5335 59.7278 79.1825V67.3501C59.7278 66.716 59.5422 66.0664 59.171 65.4013C58.8152 64.7362 58.3203 64.4036 57.6861 64.4036C56.8818 64.4036 56.3791 64.7053 56.1781 65.3085C55.977 65.8962 55.8764 66.5768 55.8764 67.3501V79.1825C55.8764 80.0178 55.977 80.8143 56.1781 81.5722C56.3946 82.3301 56.9282 82.709 57.7789 82.709ZM82.51 93.6134C75.5807 93.6134 72.116 90.0173 72.116 82.825V68.8582C72.116 65.5792 73.0363 62.9652 74.8769 61.0163C76.7175 59.052 79.2619 58.0698 82.51 58.0698C85.7736 58.0698 88.3256 59.052 90.1662 61.0163C92.0068 62.9652 92.9271 65.5792 92.9271 68.8582V82.825C92.9271 90.0173 89.4547 93.6134 82.51 93.6134ZM82.51 87.21C83.206 87.21 83.701 86.9625 83.9948 86.4676C84.3042 85.9571 84.4588 85.3153 84.4588 84.5419V67.5357C84.4588 65.5095 83.8092 64.4964 82.51 64.4964C81.2107 64.4964 80.5611 65.5095 80.5611 67.5357V84.5419C80.5611 85.3153 80.7081 85.9571 81.0019 86.4676C81.3113 86.9625 81.814 87.21 82.51 87.21ZM106.499 93.6134C99.6312 93.6134 96.1975 90.1333 96.1975 83.1731V80.4122H104.55V84.4955C104.55 85.2843 104.704 85.903 105.014 86.3516C105.323 86.8001 105.818 87.0244 106.499 87.0244C107.705 87.0244 108.308 86.1196 108.308 84.3099C108.308 82.7941 107.991 81.665 107.357 80.9226C106.723 80.1647 105.95 79.4377 105.037 78.7417L100.606 75.3312C99.2136 74.2485 98.1541 73.1039 97.4271 71.8975C96.7002 70.6911 96.3367 69.0129 96.3367 66.8629C96.3367 64.8677 96.8085 63.2204 97.752 61.9212C98.7109 60.6219 99.9715 59.6552 101.534 59.0211C103.111 58.3869 104.813 58.0698 106.638 58.0698C113.382 58.0698 116.753 61.4339 116.753 68.1622V68.8118H108.169V67.4893C108.169 66.7933 108.045 66.1205 107.798 65.4709C107.566 64.8213 107.102 64.4964 106.406 64.4964C105.23 64.4964 104.643 65.1151 104.643 66.3525C104.643 67.6054 105.138 68.5875 106.127 69.299L111.278 73.0575C112.887 74.2176 114.232 75.5941 115.315 77.1873C116.413 78.7804 116.962 80.8994 116.962 83.5443C116.962 86.8233 116.026 89.3213 114.155 91.0381C112.299 92.755 109.747 93.6134 106.499 93.6134ZM13.5833 147.613C9.85573 147.613 7.16444 146.685 5.50946 144.829C3.86994 142.973 3.05018 140.019 3.05018 135.967V131.976H11.124V137.08C11.124 138.024 11.2632 138.766 11.5417 139.308C11.8355 139.833 12.3382 140.096 13.0497 140.096C13.7921 140.096 14.3025 139.88 14.581 139.447C14.8748 139.014 15.0218 138.302 15.0218 137.312C15.0218 136.059 14.898 135.015 14.6506 134.18C14.4031 133.329 13.97 132.525 13.3513 131.767C12.7481 130.994 11.9051 130.097 10.8224 129.076L7.15671 125.596C4.41902 123.013 3.05018 120.059 3.05018 116.733C3.05018 113.253 3.85447 110.6 5.46306 108.775C7.08711 106.95 9.43038 106.038 12.4929 106.038C16.2359 106.038 18.8886 107.035 20.4507 109.031C22.0284 111.026 22.8172 114.057 22.8172 118.125H14.5114V115.318C14.5114 114.761 14.3489 114.328 14.0241 114.019C13.7148 113.709 13.2894 113.555 12.7481 113.555C12.0985 113.555 11.619 113.74 11.3096 114.112C11.0158 114.467 10.8688 114.931 10.8688 115.504C10.8688 116.076 11.0235 116.695 11.3328 117.36C11.6422 118.025 12.2531 118.79 13.1657 119.656L17.8755 124.181C18.819 125.078 19.6851 126.029 20.4739 127.034C21.2628 128.024 21.8969 129.184 22.3764 130.514C22.8559 131.829 23.0956 133.438 23.0956 135.34C23.0956 139.176 22.3841 142.184 20.9612 144.365C19.5536 146.531 17.0944 147.613 13.5833 147.613ZM33.7903 147.613C31.5475 147.613 30.0317 147.142 29.2429 146.198C28.4695 145.239 28.0829 143.778 28.0829 141.813V120.121H25.7396V113.787H28.0829V106.409H36.1567V113.787H38.5V120.121H36.1567V139.864C36.1567 140.437 36.2495 140.839 36.4351 141.071C36.6207 141.303 36.9765 141.419 37.5024 141.419C37.8736 141.419 38.2061 141.388 38.5 141.326V146.987C38.3144 147.049 37.7344 147.165 36.7599 147.335C35.7855 147.521 34.7956 147.613 33.7903 147.613ZM48.4522 147.613C46.5188 147.613 45.0417 147.165 44.0209 146.268C43.0155 145.371 42.3272 144.141 41.956 142.579C41.5848 141.017 41.3992 139.246 41.3992 137.266C41.3992 135.147 41.608 133.415 42.0256 132.069C42.4432 130.708 43.1547 129.594 44.1601 128.728C45.1809 127.862 46.5807 127.127 48.3594 126.524L53.51 124.761V121.188C53.51 119.316 52.899 118.38 51.6771 118.38C50.5635 118.38 50.0067 119.138 50.0067 120.654V122.742H41.9328C41.9173 122.618 41.9096 122.464 41.9096 122.278C41.9096 122.077 41.9096 121.853 41.9096 121.605C41.9096 118.141 42.7216 115.689 44.3457 114.251C45.9852 112.797 48.5759 112.07 52.1179 112.07C53.974 112.07 55.6367 112.402 57.1061 113.067C58.5755 113.717 59.7355 114.684 60.5862 115.968C61.4524 117.251 61.8854 118.837 61.8854 120.724V147.242H53.626V143.112C53.2238 144.566 52.5587 145.68 51.6307 146.453C50.7027 147.227 49.6432 147.613 48.4522 147.613ZM51.7235 141.164C52.4041 141.164 52.8681 140.877 53.1156 140.305C53.363 139.733 53.4868 139.114 53.4868 138.449V128.751C52.3422 129.215 51.4528 129.803 50.8187 130.514C50.1845 131.21 49.8674 132.239 49.8674 133.6V138.078C49.8674 140.135 50.4861 141.164 51.7235 141.164ZM73.1833 147.613C70.9405 147.613 69.4248 147.142 68.6359 146.198C67.8626 145.239 67.4759 143.778 67.4759 141.813V120.121H65.1326V113.787H67.4759V106.409H75.5498V113.787H77.893V120.121H75.5498V139.864C75.5498 140.437 75.6426 140.839 75.8282 141.071C76.0138 141.303 76.3695 141.419 76.8954 141.419C77.2666 141.419 77.5992 141.388 77.893 141.326V146.987C77.7074 147.049 77.1274 147.165 76.153 147.335C75.1785 147.521 74.1886 147.613 73.1833 147.613ZM91.2557 147.613C88.781 147.613 86.8089 147.149 85.3396 146.221C83.8702 145.293 82.8184 143.955 82.1842 142.208C81.5501 140.46 81.233 138.356 81.233 135.897V121.907C81.233 118.674 82.161 116.231 84.0171 114.576C85.8732 112.905 88.4253 112.07 91.6734 112.07C98.3552 112.07 101.696 115.349 101.696 121.907V124.436C101.696 127.498 101.665 129.555 101.603 130.607H89.5389V137.335C89.5389 137.954 89.5776 138.565 89.6549 139.168C89.7322 139.756 89.9024 140.243 90.1653 140.63C90.4437 141.017 90.8845 141.21 91.4878 141.21C92.3539 141.21 92.8953 140.839 93.1118 140.096C93.3283 139.338 93.4366 138.356 93.4366 137.15V133.809H101.696V135.781C101.696 138.379 101.371 140.56 100.722 142.324C100.088 144.071 99.0048 145.394 97.4735 146.291C95.9578 147.173 93.8852 147.613 91.2557 147.613ZM89.4925 126.478H93.4366V121.791C93.4366 120.538 93.2819 119.641 92.9726 119.1C92.6633 118.543 92.1992 118.264 91.5806 118.264C90.9155 118.264 90.3973 118.527 90.0261 119.053C89.6704 119.579 89.4925 120.492 89.4925 121.791V126.478Z" fill="#59A9DA"/>
<path d="M4.78031 40L1.18419 10.8168H6.73581L8.87359 30.67L10.7794 10.8168H16.331L12.7349 40H4.78031ZM18.5841 13.6174V8.67898H24.5169V13.6174H18.5841ZM18.5841 40V15.142H24.5169V40H18.5841ZM34.36 40.2652C29.4547 40.2652 27.002 37.7794 27.002 32.8078V30.8357H32.9679V33.7524C32.9679 34.3158 33.0784 34.7577 33.2993 35.0781C33.5203 35.3985 33.8738 35.5587 34.36 35.5587C35.2217 35.5587 35.6526 34.9124 35.6526 33.6198C35.6526 32.5371 35.4261 31.7306 34.9731 31.2003C34.5201 30.6589 33.9678 30.1397 33.3159 29.6425L30.1507 27.2064C29.1564 26.4331 28.3996 25.6155 27.8803 24.7538C27.3611 23.892 27.1014 22.6933 27.1014 21.1577C27.1014 19.7325 27.4384 18.5559 28.1123 17.6278C28.7973 16.6998 29.6977 16.0093 30.8136 15.5563C31.9404 15.1034 33.1557 14.8769 34.4594 14.8769C39.2763 14.8769 41.6848 17.2798 41.6848 22.0857V22.5497H35.5531V21.6051C35.5531 21.108 35.4648 20.6274 35.288 20.1634C35.1223 19.6993 34.7908 19.4673 34.2937 19.4673C33.454 19.4673 33.0342 19.9092 33.0342 20.7931C33.0342 21.688 33.3877 22.3895 34.0948 22.8977L37.7738 25.5824C38.9228 26.411 39.8839 27.3943 40.6573 28.5322C41.4417 29.6701 41.8339 31.1837 41.8339 33.0729C41.8339 35.4151 41.1655 37.1993 39.8287 38.4257C38.5029 39.652 36.68 40.2652 34.36 40.2652ZM44.3025 13.6174V8.67898H50.2352V13.6174H44.3025ZM44.3025 40V15.142H50.2352V40H44.3025ZM58.3714 40.2652C56.7695 40.2652 55.6868 39.9282 55.1233 39.2543C54.5709 38.5693 54.2947 37.5253 54.2947 36.1222V20.6274H52.6209V16.1032H54.2947V10.8333H60.0618V16.1032H61.7355V20.6274H60.0618V34.7301C60.0618 35.1389 60.128 35.4261 60.2606 35.5919C60.3932 35.7576 60.6473 35.8404 61.0229 35.8404C61.2881 35.8404 61.5256 35.8183 61.7355 35.7741V39.8177C61.6029 39.8619 61.1887 39.9448 60.4926 40.0663C59.7966 40.1989 59.0895 40.2652 58.3714 40.2652Z" fill="#ED9613"/>
<rect x="108.136" y="134.484" width="12.7273" height="12.7273" fill="#ED9613"/>
</svg>
